<svg xmlns="http://www.w3.org/2000/svg" xmlns:xlink="http://www.w3.org/1999/xlink" width="500" zoomAndPan="magnify" viewBox="0 0 375 374.999991" height="500" preserveAspectRatio="xMidYMid meet" version="1.0"><defs><g/></defs><g fill="#ff00ff" fill-opacity="1"><g transform="translate(65.497133, 205.519542)"><g><path d="M 94.5 0 L 115.5 0 L 115.5 -105 L 94.5 -105 L 94.5 -84 L 73.5 -84 L 73.5 -63 L 94.5 -63 Z M 10.5 0 L 31.5 0 L 31.5 -63 L 52.5 -63 L 52.5 -84 L 31.5 -84 L 31.5 -105 L 10.5 -105 Z M 52.5 -42 L 73.5 -42 L 73.5 -63 L 52.5 -63 Z M 52.5 -42 "/></g></g></g><g fill="#ff00ff" fill-opacity="1"><g transform="translate(176.647158, 205.519542)"><g><path d="M 31.5 0 L 115.5 0 L 115.5 -63 L 52.5 -63 L 52.5 -42 L 94.5 -42 L 94.5 -21 L 31.5 -21 Z M 10.5 -21 L 31.5 -21 L 31.5 -84 L 10.5 -84 Z M 31.5 -84 L 115.5 -84 L 115.5 -105 L 31.5 -105 Z M 31.5 -84 "/></g></g></g><g fill="#00ffff" fill-opacity="1"><g transform="translate(71.598177, 219.22273)"><g><path d="M 94.5 0 L 115.5 0 L 115.5 -105 L 94.5 -105 L 94.5 -84 L 73.5 -84 L 73.5 -63 L 94.5 -63 Z M 10.5 0 L 31.5 0 L 31.5 -63 L 52.5 -63 L 52.5 -84 L 31.5 -84 L 31.5 -105 L 10.5 -105 Z M 52.5 -42 L 73.5 -42 L 73.5 -63 L 52.5 -63 Z M 52.5 -42 "/></g></g></g><g fill="#00ffff" fill-opacity="1"><g transform="translate(182.748202, 219.22273)"><g><path d="M 31.5 0 L 115.5 0 L 115.5 -63 L 52.5 -63 L 52.5 -42 L 94.5 -42 L 94.5 -21 L 31.5 -21 Z M 10.5 -21 L 31.5 -21 L 31.5 -84 L 10.5 -84 Z M 31.5 -84 L 115.5 -84 L 115.5 -105 L 31.5 -105 Z M 31.5 -84 "/></g></g></g><g fill="#ffffff" fill-opacity="1"><g transform="translate(68.547655, 212.371136)"><g><path d="M 94.5 0 L 115.5 0 L 115.5 -105 L 94.5 -105 L 94.5 -84 L 73.5 -84 L 73.5 -63 L 94.5 -63 Z M 10.5 0 L 31.5 0 L 31.5 -63 L 52.5 -63 L 52.5 -84 L 31.5 -84 L 31.5 -105 L 10.5 -105 Z M 52.5 -42 L 73.5 -42 L 73.5 -63 L 52.5 -63 Z M 52.5 -42 "/></g></g></g><g fill="#ffffff" fill-opacity="1"><g transform="translate(179.69768, 212.371136)"><g><path d="M 31.5 0 L 115.5 0 L 115.5 -63 L 52.5 -63 L 52.5 -42 L 94.5 -42 L 94.5 -21 L 31.5 -21 Z M 10.5 -21 L 31.5 -21 L 31.5 -84 L 10.5 -84 Z M 31.5 -84 L 115.5 -84 L 115.5 -105 L 31.5 -105 Z M 31.5 -84 "/></g></g></g><g fill="#ffffff" fill-opacity="1"><g transform="translate(77.024216, 250.788308)"><g><path d="M 12.597656 0 L 15.394531 0 L 15.394531 -13.996094 L 12.597656 -13.996094 L 12.597656 -11.195312 L 9.796875 -11.195312 L 9.796875 -8.398438 L 12.597656 -8.398438 Z M 1.398438 0 L 4.199219 0 L 4.199219 -8.398438 L 7 -8.398438 L 7 -11.195312 L 4.199219 -11.195312 L 4.199219 -13.996094 L 1.398438 -13.996094 Z M 7 -5.597656 L 9.796875 -5.597656 L 9.796875 -8.398438 L 7 -8.398438 Z M 7 -5.597656 "/></g></g></g><g fill="#ffffff" fill-opacity="1"><g transform="translate(98.217602, 250.788308)"><g><path d="M 12.597656 -2.800781 L 4.199219 -2.800781 L 4.199219 0 L 12.597656 0 Z M 1.398438 -2.800781 L 4.199219 -2.800781 L 4.199219 -11.195312 L 1.398438 -11.195312 Z M 4.199219 -11.195312 L 12.597656 -11.195312 L 12.597656 -13.996094 L 4.199219 -13.996094 Z M 12.597656 -2.800781 L 15.394531 -2.800781 L 15.394531 -11.195312 L 12.597656 -11.195312 Z M 12.597656 -2.800781 "/></g></g></g><g fill="#ffffff" fill-opacity="1"><g transform="translate(119.410987, 250.788308)"><g><path d="M 12.597656 0 L 15.394531 0 L 15.394531 -13.996094 L 12.597656 -13.996094 L 12.597656 -5.597656 L 9.796875 -5.597656 L 9.796875 -2.800781 L 12.597656 -2.800781 Z M 1.398438 0 L 4.199219 0 L 4.199219 -8.398438 L 7 -8.398438 L 7 -11.195312 L 4.199219 -11.195312 L 4.199219 -13.996094 L 1.398438 -13.996094 Z M 7 -5.597656 L 9.796875 -5.597656 L 9.796875 -8.398438 L 7 -8.398438 Z M 7 -5.597656 "/></g></g></g><g fill="#ffffff" fill-opacity="1"><g transform="translate(140.604371, 250.788308)"><g><path d="M 1.398438 0 L 15.394531 0 L 15.394531 -2.800781 L 4.199219 -2.800781 L 4.199219 -5.597656 L 12.597656 -5.597656 L 12.597656 -8.398438 L 4.199219 -8.398438 L 4.199219 -11.195312 L 15.394531 -11.195312 L 15.394531 -13.996094 L 1.398438 -13.996094 Z M 1.398438 0 "/></g></g></g><g fill="#ffffff" fill-opacity="1"><g transform="translate(161.797758, 250.788308)"><g><path d="M 7 0 L 9.796875 0 L 9.796875 -5.597656 L 7 -5.597656 Z M 1.398438 -8.398438 L 4.199219 -8.398438 L 4.199219 -13.996094 L 1.398438 -13.996094 Z M 4.199219 -5.597656 L 7 -5.597656 L 7 -8.398438 L 4.199219 -8.398438 Z M 9.796875 -5.597656 L 12.597656 -5.597656 L 12.597656 -8.398438 L 9.796875 -8.398438 Z M 12.597656 -8.398438 L 15.394531 -8.398438 L 15.394531 -13.996094 L 12.597656 -13.996094 Z M 12.597656 -8.398438 "/></g></g></g><g fill="#ffffff" fill-opacity="1"><g transform="translate(182.991144, 250.788308)"><g><path d="M 4.199219 0 L 15.394531 0 L 15.394531 -8.398438 L 7 -8.398438 L 7 -5.597656 L 12.597656 -5.597656 L 12.597656 -2.800781 L 4.199219 -2.800781 Z M 1.398438 -2.800781 L 4.199219 -2.800781 L 4.199219 -11.195312 L 1.398438 -11.195312 Z M 4.199219 -11.195312 L 15.394531 -11.195312 L 15.394531 -13.996094 L 4.199219 -13.996094 Z M 4.199219 -11.195312 "/></g></g></g><g fill="#ffffff" fill-opacity="1"><g transform="translate(204.184525, 250.788308)"><g><path d="M 4.199219 0 L 15.394531 0 L 15.394531 -2.800781 L 4.199219 -2.800781 Z M 1.398438 -2.800781 L 4.199219 -2.800781 L 4.199219 -13.996094 L 1.398438 -13.996094 Z M 1.398438 -2.800781 "/></g></g></g><g fill="#ffffff" fill-opacity="1"><g transform="translate(225.377906, 250.788308)"><g><path d="M 1.398438 0 L 9.796875 0 L 9.796875 -2.800781 L 7 -2.800781 L 7 -11.195312 L 9.796875 -11.195312 L 9.796875 -13.996094 L 1.398438 -13.996094 L 1.398438 -11.195312 L 4.199219 -11.195312 L 4.199219 -2.800781 L 1.398438 -2.800781 Z M 1.398438 0 "/></g></g></g><g fill="#ffffff" fill-opacity="1"><g transform="translate(240.97349, 250.788308)"><g><path d="M 7 0 L 9.796875 0 L 9.796875 -11.195312 L 15.394531 -11.195312 L 15.394531 -13.996094 L 1.398438 -13.996094 L 1.398438 -11.195312 L 7 -11.195312 Z M 7 0 "/></g></g></g><g fill="#ffffff" fill-opacity="1"><g transform="translate(262.166871, 250.788308)"><g><path d="M 4.199219 -11.195312 L 1.398438 -11.195312 L 1.398438 -2.800781 L 4.199219 -2.800781 Z M 4.199219 0 L 15.394531 0 L 15.394531 -2.800781 L 4.199219 -2.800781 Z M 4.199219 -11.195312 L 15.394531 -11.195312 L 15.394531 -13.996094 L 4.199219 -13.996094 Z M 4.199219 -11.195312 "/></g></g></g><g fill="#ffffff" fill-opacity="1"><g transform="translate(283.360263, 250.788308)"><g><path d="M 1.398438 0 L 4.199219 0 L 4.199219 -5.597656 L 12.597656 -5.597656 L 12.597656 0 L 15.394531 0 L 15.394531 -13.996094 L 12.597656 -13.996094 L 12.597656 -8.398438 L 4.199219 -8.398438 L 4.199219 -13.996094 L 1.398438 -13.996094 Z M 1.398438 0 "/></g></g></g></svg>