<svg xmlns="http://www.w3.org/2000/svg" xmlns:xlink="http://www.w3.org/1999/xlink" width="500" zoomAndPan="magnify" viewBox="0 0 375 374.999991" height="500" preserveAspectRatio="xMidYMid meet" version="1.0"><defs><g/></defs><g fill="#ff00ff" fill-opacity="1"><g transform="translate(65.872133, 228.648398)"><g><path d="M 94.5 0 L 115.5 0 L 115.5 -105 L 94.5 -105 L 94.5 -84 L 73.5 -84 L 73.5 -63 L 94.5 -63 Z M 10.5 0 L 31.5 0 L 31.5 -63 L 52.5 -63 L 52.5 -84 L 31.5 -84 L 31.5 -105 L 10.5 -105 Z M 52.5 -42 L 73.5 -42 L 73.5 -63 L 52.5 -63 Z M 52.5 -42 "/></g></g></g><g fill="#ff00ff" fill-opacity="1"><g transform="translate(177.022158, 228.648398)"><g><path d="M 31.5 0 L 115.5 0 L 115.5 -63 L 52.5 -63 L 52.5 -42 L 94.5 -42 L 94.5 -21 L 31.5 -21 Z M 10.5 -21 L 31.5 -21 L 31.5 -84 L 10.5 -84 Z M 31.5 -84 L 115.5 -84 L 115.5 -105 L 31.5 -105 Z M 31.5 -84 "/></g></g></g><g fill="#00ffff" fill-opacity="1"><g transform="translate(71.973177, 242.351571)"><g><path d="M 94.5 0 L 115.5 0 L 115.5 -105 L 94.5 -105 L 94.5 -84 L 73.5 -84 L 73.5 -63 L 94.5 -63 Z M 10.5 0 L 31.5 0 L 31.5 -63 L 52.5 -63 L 52.5 -84 L 31.5 -84 L 31.5 -105 L 10.5 -105 Z M 52.5 -42 L 73.5 -42 L 73.5 -63 L 52.5 -63 Z M 52.5 -42 "/></g></g></g><g fill="#00ffff" fill-opacity="1"><g transform="translate(183.123202, 242.351571)"><g><path d="M 31.5 0 L 115.5 0 L 115.5 -63 L 52.5 -63 L 52.5 -42 L 94.5 -42 L 94.5 -21 L 31.5 -21 Z M 10.5 -21 L 31.5 -21 L 31.5 -84 L 10.5 -84 Z M 31.5 -84 L 115.5 -84 L 115.5 -105 L 31.5 -105 Z M 31.5 -84 "/></g></g></g><g fill="#ffffff" fill-opacity="1"><g transform="translate(68.922655, 235.499985)"><g><path d="M 94.5 0 L 115.5 0 L 115.5 -105 L 94.5 -105 L 94.5 -84 L 73.5 -84 L 73.5 -63 L 94.5 -63 Z M 10.5 0 L 31.5 0 L 31.5 -63 L 52.5 -63 L 52.5 -84 L 31.5 -84 L 31.5 -105 L 10.5 -105 Z M 52.5 -42 L 73.5 -42 L 73.5 -63 L 52.5 -63 Z M 52.5 -42 "/></g></g></g><g fill="#ffffff" fill-opacity="1"><g transform="translate(180.07268, 235.499985)"><g><path d="M 31.5 0 L 115.5 0 L 115.5 -63 L 52.5 -63 L 52.5 -42 L 94.5 -42 L 94.5 -21 L 31.5 -21 Z M 10.5 -21 L 31.5 -21 L 31.5 -84 L 10.5 -84 Z M 31.5 -84 L 115.5 -84 L 115.5 -105 L 31.5 -105 Z M 31.5 -84 "/></g></g></g></svg>